<svg width="1501" height="375" viewBox="0 0 1501 375" fill="none" xmlns="http://www.w3.org/2000/svg">
<path d="M259.093 5.37705C253.833 6.45739 248.896 8.74224 244.668 12.0522C240.44 15.3622 237.037 19.6071 234.726 24.4538C232.416 29.3004 231.26 34.6167 231.35 39.9853C231.439 45.3539 232.772 50.6286 235.244 55.3952C237.716 60.1618 241.259 64.2906 245.595 67.4573C249.931 70.6239 254.942 72.7424 260.235 73.6462C265.528 74.5499 270.958 74.2145 276.099 72.6662C281.241 71.1179 285.953 68.3988 289.866 64.7225C275.021 67.7834 259.348 60.8172 252.025 46.6966C244.701 32.571 248.032 15.7497 259.093 5.37705V5.37705Z" fill="#D09D4D"/>
<path d="M908.236 55.4921L912.573 65.5766L902.488 61.2391C904.766 59.6126 906.717 57.6608 908.236 55.4921ZM870.934 29.4676L866.596 19.3831L876.572 23.7205C874.404 25.347 872.452 27.2989 870.934 29.4676ZM911.922 38.4677L922.115 42.4798L911.922 46.4919C912.248 45.1907 912.356 43.8895 912.356 42.4798C912.356 41.0702 912.248 39.7689 911.922 38.4677V38.4677ZM867.247 46.4919L857.054 42.4798L867.247 38.4677C867.03 39.7689 866.813 41.1786 866.813 42.4798C866.813 43.8895 866.922 45.1907 867.247 46.4919ZM902.597 23.8289L912.681 19.4915L908.344 29.576C906.717 27.2989 904.766 25.347 902.597 23.8289ZM876.572 61.1307L866.488 65.4681L870.825 55.3836C872.452 57.6608 874.404 59.6126 876.572 61.1307ZM885.573 20.1421L889.585 9.94922L893.597 20.1421C892.296 19.9253 890.886 19.7084 889.585 19.7084C888.283 19.7084 886.874 19.8168 885.573 20.1421V20.1421ZM893.597 64.8175L889.585 75.0104L885.573 64.8175C886.874 65.1428 888.175 65.2513 889.585 65.2513C890.994 65.2513 892.296 65.1428 893.597 64.8175" fill="#D09D4D"/>
<path d="M889.589 63.0785C878.21 63.0785 868.986 53.8543 868.986 42.4758C868.986 31.0972 878.21 21.873 889.589 21.873C900.967 21.873 910.191 31.0972 910.191 42.4758C910.191 53.8543 900.967 63.0785 889.589 63.0785Z" fill="#D09D4D"/>
<path d="M902.058 72.5127L894.468 64.7053C897.179 64.1631 899.673 63.0788 901.95 61.5607L902.058 72.5127ZM877.118 12.4395L884.709 20.2468C881.998 20.789 879.504 21.8733 877.227 23.3914L877.118 12.4395ZM919.625 54.9461L908.673 54.8377C910.191 52.5605 911.275 50.0665 911.818 47.3556L919.625 54.9461ZM859.552 30.006L870.504 30.1144C869.094 32.3916 868.01 34.8856 867.359 37.5965L859.552 30.006ZM919.625 30.006L911.818 37.5965C911.275 34.8856 910.191 32.3916 908.673 30.1144L919.625 30.006ZM859.552 54.9461L867.359 47.3556C867.901 50.0665 868.986 52.5605 870.504 54.8377L859.552 54.9461ZM902.058 12.4395L901.95 23.3914C899.673 21.9818 897.179 20.8974 894.468 20.2468L902.058 12.4395V12.4395ZM877.118 72.5127L877.227 61.5607C879.504 63.0788 881.998 64.1631 884.709 64.7053L877.118 72.5127" fill="#D09D4D"/>
<path d="M1467.46 9.94873L1495.64 58.7446H1439.29L1467.46 9.94873Z" fill="#D09D4D"/>
<path d="M1467.47 75.0171L1439.3 26.2212L1495.64 26.2212L1467.47 75.0171Z" fill="#D09D4D"/>
<path d="M1476.77 26.214L1467.48 9.94873L1458.18 26.214H1439.59L1448.89 42.4793L1439.59 58.7446H1458.18L1467.48 75.0099L1476.77 58.7446H1495.36L1486.06 42.4793L1495.36 26.214H1476.77Z" fill="#D09D4D"/>
<path fill-rule="evenodd" clip-rule="evenodd" d="M0 102.058V324.031H37.761V257.694H100.526L146.452 324.031H190.846L138.287 251.571C195.439 234.731 218.912 125.02 118.896 102.058H0ZM37.761 226.567V133.695H106.139C167.373 144.921 155.126 220.954 106.139 226.567H37.761Z" fill="#D09D4D"/>
<path d="M237.282 102.058V324.031H276.064V102.058H237.282Z" fill="#D09D4D"/>
<path fill-rule="evenodd" clip-rule="evenodd" d="M1212.43 101.032V323.006H1250.19V256.669H1312.96L1358.88 323.006H1403.28L1350.72 250.545C1407.87 233.706 1431.34 123.995 1331.33 101.032H1212.43ZM1250.19 225.542V132.67H1318.57C1379.8 143.896 1367.56 219.928 1318.57 225.542H1250.19Z" fill="#D09D4D"/>
<path d="M1452.26 101.032V323.006H1491.04V101.032H1452.26Z" fill="#D09D4D"/>
<path fill-rule="evenodd" clip-rule="evenodd" d="M971.575 101.032V323.006H1009.34V256.669H1072.1L1118.03 323.006H1162.42L1109.86 250.545C1167.01 233.706 1190.49 123.995 1090.47 101.032H971.575ZM1009.34 225.542V132.67H1077.71C1138.95 143.896 1126.7 219.928 1077.71 225.542H1009.34Z" fill="#D09D4D"/>
<path d="M868.498 101.032V323.006H907.28V101.032H868.498Z" fill="#D09D4D"/>
<path fill-rule="evenodd" clip-rule="evenodd" d="M436.799 95.9346C368.42 99.5066 321.475 150.025 321.475 206.156C321.474 287.291 381.177 321.99 432.716 327.604C448.229 355.771 480.172 370.978 516.403 374.039C549.877 374.039 569.642 357.2 576.106 348.525L557.736 327.604C529.16 351.587 500.074 348.525 478.642 324.542C562.838 296.476 567.431 244.938 562.838 191.358C554.164 135.226 509.769 95.9346 436.799 95.9346ZM524.567 221.464C521.335 244.597 500.788 291.067 444.453 291.884C393.934 291.884 362.807 259.225 362.807 203.605C365.869 160.23 399.037 130.634 444.453 130.634C510.789 133.696 529.201 188.296 524.567 221.464Z" fill="#D09D4D"/>
<path d="M609.274 101.548H648.566V231.179C648.566 240.308 649.525 249.531 653.012 257.969C665.466 288.105 685.447 292.904 706.228 292.904C730.583 292.904 755.798 287.316 766.09 254.436C768.033 248.227 768.483 241.661 768.483 235.156V101.548H804.713V247.489C804.713 308.723 744.5 327.604 706.228 327.604C667.957 327.604 609.274 304.13 609.274 247.489V101.548Z" fill="#D09D4D"/>
</svg>
